<svg xmlns="http://www.w3.org/2000/svg" xmlns:xlink="http://www.w3.org/1999/xlink" version="1.1" data-diagram-type="STATE" style="width:1252px;height:966px;background:#FFFFFF;" width="1252px" height="966px" viewBox="0 0 1252 966" zoomAndPan="magnify" preserveAspectRatio="none" contentStyleType="text/css"><?plantuml 1.2026.8?><defs/><g font-family="sans-serif" lengthAdjust="spacing"><g class="title" data-source-line="5"><text x="413.981" y="24.966" fill="#000" font-size="14" textLength="417.968" font-weight="700" font-family="'Noto Sans'">One managed file at start-up (reconcile.rs, "reconcile a file")</text></g><g class="entity" data-qualified-name="Read" id="ent0001" data-source-line="7"><rect x="287.81" y="127.068" width="91.988" height="52.688" fill="#DDEBF7" style="stroke:#181818;stroke-width:0.5;" rx="12.5" ry="12.5"/><line x1="287.81" y1="153.412" x2="379.798" y2="153.412" style="stroke:#181818;stroke-width:0.5;"/><text x="319.632" y="144.896" fill="#000" font-size="12" textLength="28.344" font-family="'Noto Sans'">Read</text><text x="292.81" y="171.24" fill="#000" font-size="12" textLength="71.988" font-family="'Noto Sans'">fs.read(path)</text></g><g class="entity" data-qualified-name="Valid" id="ent0002" data-source-line="8"><rect x="55.37" y="270.758" width="112.869" height="69.032" fill="#EDEDED" style="stroke:#181818;stroke-width:0.5;" rx="12.5" ry="12.5"/><line x1="55.37" y1="297.102" x2="168.239" y2="297.102" style="stroke:#181818;stroke-width:0.5;"/><text x="98.052" y="288.586" fill="#000" font-size="12" textLength="27.504" font-family="'Noto Sans'">Valid</text><text x="60.37" y="314.93" fill="#000" font-size="12" textLength="92.869" font-family="'Noto Sans'">passes its check:</text><text x="60.37" y="331.274" fill="#000" font-size="12" textLength="75.457" font-family="'Noto Sans'">never written</text></g><g class="entity" data-qualified-name="Missing" id="ent0003" data-source-line="9"><rect x="219.12" y="280.278" width="63.368" height="50" fill="#EDEDED" style="stroke:#181818;stroke-width:0.5;" rx="12.5" ry="12.5"/><line x1="219.12" y1="306.622" x2="282.488" y2="306.622" style="stroke:#181818;stroke-width:0.5;"/><text x="229.12" y="298.106" fill="#000" font-size="12" textLength="43.368" font-family="'Noto Sans'">Missing</text></g><g class="entity" data-qualified-name="Damaged" id="ent0004" data-source-line="10"><rect x="520.64" y="278.928" width="94.329" height="52.688" fill="#F8CBAD" style="stroke:#181818;stroke-width:0.5;" rx="12.5" ry="12.5"/><line x1="520.64" y1="305.272" x2="614.969" y2="305.272" style="stroke:#181818;stroke-width:0.5;"/><text x="540.318" y="296.756" fill="#000" font-size="12" textLength="54.972" font-family="'Noto Sans'">Damaged</text><text x="525.64" y="323.1" fill="#000" font-size="12" textLength="74.329" font-family="'Noto Sans'">fails its check</text></g><g class="entity" data-qualified-name="BackedUp" id="ent0005" data-source-line="11"><rect x="474.17" y="457.138" width="173.265" height="69.032" fill="#FCE4D6" style="stroke:#181818;stroke-width:0.5;" rx="12.5" ry="12.5"/><line x1="474.17" y1="483.482" x2="647.435" y2="483.482" style="stroke:#181818;stroke-width:0.5;"/><text x="531.42" y="474.966" fill="#000" font-size="12" textLength="58.764" font-family="'Noto Sans'">Backed up</text><text x="479.17" y="501.31" fill="#000" font-size="12" textLength="96.853" font-family="'Noto Sans'">a durable copy in</text><text x="479.17" y="517.654" fill="#000" font-size="12" textLength="153.265" font-family="'Noto Sans'">&lt;root>/backups/&lt;session>/</text></g><g class="entity" data-qualified-name="Repaired" id="ent0006" data-source-line="12"><rect x="395.49" y="666.548" width="192.621" height="69.032" fill="#FCE4D6" style="stroke:#181818;stroke-width:0.5;" rx="12.5" ry="12.5"/><line x1="395.49" y1="692.892" x2="588.111" y2="692.892" style="stroke:#181818;stroke-width:0.5;"/><text x="466.528" y="684.376" fill="#000" font-size="12" textLength="50.544" font-family="'Noto Sans'">Repaired</text><text x="400.49" y="710.72" fill="#000" font-size="12" textLength="157.777" font-family="'Noto Sans'">its usable part or its default,</text><text x="400.49" y="727.064" fill="#000" font-size="12" textLength="172.621" font-family="'Noto Sans'">renamed over it (write_atomic)</text></g><g class="entity" data-qualified-name="Created" id="ent0007" data-source-line="13"><rect x="54.07" y="567.518" width="193.461" height="69.032" fill="#FCE4D6" style="stroke:#181818;stroke-width:0.5;" rx="12.5" ry="12.5"/><line x1="54.07" y1="593.862" x2="247.531" y2="593.862" style="stroke:#181818;stroke-width:0.5;"/><text x="128.54" y="585.346" fill="#000" font-size="12" textLength="44.52" font-family="'Noto Sans'">Created</text><text x="59.07" y="611.69" fill="#000" font-size="12" textLength="164.569" font-family="'Noto Sans'">its default, published without</text><text x="59.07" y="628.034" fill="#000" font-size="12" textLength="173.461" font-family="'Noto Sans'">replacing anything (write_new)</text></g><g class="entity" data-qualified-name="Absent" id="ent0008" data-source-line="14"><rect x="234.66" y="674.718" width="108.285" height="52.688" fill="#EDEDED" style="stroke:#181818;stroke-width:0.5;" rx="12.5" ry="12.5"/><line x1="234.66" y1="701.062" x2="342.945" y2="701.062" style="stroke:#181818;stroke-width:0.5;"/><text x="269.146" y="692.546" fill="#000" font-size="12" textLength="39.312" font-family="'Noto Sans'">Absent</text><text x="239.66" y="718.89" fill="#000" font-size="12" textLength="88.285" font-family="'Noto Sans'">left to its owner</text></g><g class="entity" data-qualified-name="Blocked" id="ent0009" data-source-line="15"><rect x="1069.67" y="457.138" width="168.261" height="69.032" fill="#EDEDED" style="stroke:#181818;stroke-width:0.5;" rx="12.5" ry="12.5"/><line x1="1069.67" y1="483.482" x2="1237.931" y2="483.482" style="stroke:#181818;stroke-width:0.5;"/><text x="1123.986" y="474.966" fill="#000" font-size="12" textLength="59.628" font-family="'Noto Sans'">Left as it is</text><text x="1074.67" y="501.31" fill="#000" font-size="12" textLength="148.261" font-family="'Noto Sans'">reported; nothing is saved</text><text x="1074.67" y="517.654" fill="#000" font-size="12" textLength="90.757" font-family="'Noto Sans'">to it this session</text></g><g class="start_entity" data-qualified-name=".start." id="ent0010" data-source-line="17"><ellipse cx="333.8" cy="56.068" rx="10" ry="10" fill="#222" style="stroke:#222;stroke-width:1;"/></g><g class="end_entity" data-qualified-name=".end." id="ent0023" data-source-line="29"><ellipse cx="288.8" cy="807.578" rx="11" ry="11" fill="none" style="stroke:#222;stroke-width:1;"/><ellipse cx="288.8" cy="807.578" rx="6" ry="6" fill="#222" style="stroke:#222;stroke-width:1;"/></g><g class="entity" data-qualified-name="GMN29" id="ent0030" data-source-line="36"><path d="M682.86,445.788 L682.86,487.648 L647.81,491.648 L682.86,495.648 L682.86,537.508 A0,0 0 0 0 682.86,537.508 L1034.75,537.508 A0,0 0 0 0 1034.75,537.508 L1034.75,455.788 L1024.75,445.788 L682.86,445.788 A0,0 0 0 0 682.86,445.788" style="stroke:#181818;stroke-width:0.5;" fill="#F8CBAD"/><path d="M1024.75,445.788 L1024.75,455.788 L1034.75,455.788 L1024.75,445.788" style="stroke:#181818;stroke-width:0.5;" fill="#F8CBAD"/><text x="688.86" y="463.616" fill="#000" font-size="12" textLength="162.697" font-weight="700" font-family="'Noto Sans'">A crash before the rename:</text><text x="854.677" y="463.616" fill="#000" font-size="12" textLength="111.529" font-family="'Noto Sans'">the file still holds its</text><text x="688.86" y="479.96" fill="#000" font-size="12" textLength="259.178" font-family="'Noto Sans'">original, and the next start makes a new copy.</text><text x="688.86" y="496.304" fill="#000" font-size="12" textLength="91.969" font-weight="700" font-family="'Noto Sans'">A crash after it:</text><text x="783.949" y="496.304" fill="#000" font-size="12" textLength="166.357" font-family="'Noto Sans'">the file holds its whole repair.</text><text x="688.86" y="512.648" fill="#000" font-size="12" textLength="281.93" font-family="'Noto Sans'">So the file is never absent, and its content is never</text><text x="688.86" y="528.992" fill="#000" font-size="12" textLength="330.89" font-family="'Noto Sans'">only in a backup (the model's NeverAbsent, RepairInPlace).</text></g><g class="entity" data-qualified-name="GMN32" id="ent0033" data-source-line="44"><path d="M649.83,275.758 L649.83,334.79 L871.771,334.79 L871.771,285.758 L861.771,275.758 L649.83,275.758" style="stroke:#181818;stroke-width:0.5;" fill="#FEFFDD"/><path d="M861.771,275.758 L861.771,285.758 L871.771,285.758 L861.771,275.758" style="stroke:#181818;stroke-width:1;" fill="#FEFFDD"/><text x="655.83" y="293.586" fill="#000" font-size="12" textLength="199.105" font-family="'Noto Sans'">A second start finds every file Valid,</text><text x="655.83" y="309.93" fill="#000" font-size="12" textLength="200.941" font-family="'Noto Sans'">Created or Absent: it writes nothing</text><text x="655.83" y="326.274" fill="#000" font-size="12" textLength="92.881" font-family="'Noto Sans'">but its busy flag.</text></g><!--link *start* to Read--><g class="link" data-entity-1="ent0010" data-entity-2="ent0001" id="lnk11" data-source-line="17" data-link-type="dependency"><path d="M333.8,66.558 C333.8,80.508 333.8,102.018 333.8,121.908" style="stroke:#181818;stroke-width:1;" fill="none" id="*start*-to-Read"/><polygon points="333.8,126.908,337.8,117.908,333.8,121.908,329.8,117.908,333.8,126.908" fill="#181818" style="stroke:#181818;stroke-width:1;stroke-linejoin:miter;stroke-miterlimit:10;"/></g><!--link Read to Valid--><g class="link" data-entity-1="ent0001" data-entity-2="ent0002" id="lnk12" data-source-line="18" data-link-type="dependency"><path d="M287.36,154.378 C241.86,156.948 173.71,168.168 133.8,209.758 C118.4,225.808 113.434,245.454 111.844,265.544" style="stroke:#181818;stroke-width:1;" fill="none" id="Read-to-Valid"/><polygon points="111.45,270.528,116.148,261.872,111.844,265.544,108.173,261.24,111.45,270.528" fill="#181818" style="stroke:#181818;stroke-width:1;stroke-linejoin:miter;stroke-miterlimit:10;"/><text x="134.8" y="230.017" fill="#000" font-size="11" textLength="87.075" font-family="'Noto Sans'">the check passes</text></g><!--link Read to Damaged--><g class="link" data-entity-1="ent0001" data-entity-2="ent0004" id="lnk13" data-source-line="19" data-link-type="dependency"><path d="M380.28,158.938 C419.76,164.878 476.04,178.528 514.8,209.758 C536.92,227.588 549.609,252.596 557.749,273.946" style="stroke:#181818;stroke-width:1;" fill="none" id="Read-to-Damaged"/><polygon points="559.53,278.618,560.061,268.783,557.749,273.946,552.586,271.633,559.53,278.618" fill="#181818" style="stroke:#181818;stroke-width:1;stroke-linejoin:miter;stroke-miterlimit:10;"/><text x="540.7" y="230.017" fill="#000" font-size="11" textLength="73.028" font-family="'Noto Sans'">the check fails</text></g><!--link Read to Missing--><g class="link" data-entity-1="ent0001" data-entity-2="ent0003" id="lnk14" data-source-line="20" data-link-type="dependency"><path d="M287.33,169.428 C268.48,178.068 248.63,191.018 237.8,209.758 C225.37,231.268 230.203,255.35 237.803,275.47" style="stroke:#181818;stroke-width:1;" fill="none" id="Read-to-Missing"/><polygon points="239.57,280.148,240.132,270.315,237.803,275.47,232.648,273.142,239.57,280.148" fill="#181818" style="stroke:#181818;stroke-width:1;stroke-linejoin:miter;stroke-miterlimit:10;"/><text x="238.8" y="230.017" fill="#000" font-size="11" textLength="51.084" font-family="'Noto Sans'">not found</text></g><!--link Missing to Read--><g class="link" data-entity-1="ent0003" data-entity-2="ent0001" id="lnk18" data-source-line="24" data-link-type="dependency"><path d="M269.23,279.918 C277.55,268.368 287.2,254.188 294.8,240.758 C305.98,221.008 314.523,202.076 321.793,184.566" style="stroke:#181818;stroke-width:1;" fill="none" id="Missing-to-Read"/><polygon points="323.71,179.948,316.565,186.726,321.793,184.566,323.953,189.794,323.71,179.948" fill="#181818" style="stroke:#181818;stroke-width:1;stroke-linejoin:miter;stroke-miterlimit:10;"/><text x="339.156" y="222.517" fill="#000" font-size="11" textLength="139.49" font-family="'Noto Sans'">write_new finds something</text><text x="311.2" y="237.499" fill="#000" font-size="11" textLength="195.403" font-family="'Noto Sans'">appeared meanwhile: look once more</text></g><!--link Read to Blocked--><g class="link" data-entity-1="ent0001" data-entity-2="ent0009" id="lnk15" data-source-line="21" data-link-type="dependency"><path d="M379.99,159.558 C476.74,171.318 706.83,204.388 888.8,270.758 C979.38,303.798 1011.51,303.808 1081.8,369.788 C1107.89,394.278 1125.604,425.778 1137.774,452.138" style="stroke:#181818;stroke-width:1;" fill="none" id="Read-to-Blocked"/><polygon points="1139.87,456.678,1139.729,446.83,1137.774,452.138,1132.466,450.183,1139.87,456.678" fill="#181818" style="stroke:#181818;stroke-width:1;stroke-linejoin:miter;stroke-miterlimit:10;"/><text x="1046.4" y="302.537" fill="#000" font-size="11" textLength="152.36" font-family="'Noto Sans'">unreadable, a link to nothing,</text><text x="1075.704" y="317.519" fill="#000" font-size="11" textLength="93.752" font-family="'Noto Sans'">or a newer format</text></g><!--link Missing to Created--><g class="link" data-entity-1="ent0003" data-entity-2="ent0007" id="lnk16" data-source-line="22" data-link-type="dependency"><path d="M218.75,323.208 C188.8,339.348 148.08,362.288 143.8,369.788 C108.43,431.918 124.24,514.645 138.01,562.215" style="stroke:#181818;stroke-width:1;" fill="none" id="Missing-to-Created"/><polygon points="139.4,567.018,140.74,557.261,138.01,562.215,133.055,559.485,139.4,567.018" fill="#181818" style="stroke:#181818;stroke-width:1;stroke-linejoin:miter;stroke-miterlimit:10;"/><text x="154.859" y="382.547" fill="#000" font-size="11" textLength="79.276" font-family="'Noto Sans'">it has a default:</text><text x="144.8" y="397.529" fill="#000" font-size="11" textLength="99.395" font-family="'Noto Sans'">settings, examples,</text><text x="148.925" y="412.511" fill="#000" font-size="11" textLength="91.145" font-family="'Noto Sans'">user-id, state files</text></g><!--link Missing to Absent--><g class="link" data-entity-1="ent0003" data-entity-2="ent0008" id="lnk17" data-source-line="23" data-link-type="dependency"><path d="M253.15,330.608 C259.91,400.708 278.92,597.621 285.84,669.391" style="stroke:#181818;stroke-width:1;" fill="none" id="Missing-to-Absent"/><polygon points="286.32,674.368,289.438,665.026,285.84,669.391,281.475,665.793,286.32,674.368" fill="#181818" style="stroke:#181818;stroke-width:1;stroke-linejoin:miter;stroke-miterlimit:10;"/><text x="296.56" y="488.907" fill="#000" font-size="11" textLength="121.109" font-family="'Noto Sans'">no default: lists, grants,</text><text x="273.95" y="503.889" fill="#000" font-size="11" textLength="166.33" font-family="'Noto Sans'">freshness; the marker is step 4's</text></g><!--link Damaged to BackedUp--><g class="link" data-entity-1="ent0004" data-entity-2="ent0005" id="lnk19" data-source-line="25" data-link-type="dependency"><path d="M566.83,331.918 C565.59,364.468 563.65,415.732 562.28,451.792" style="stroke:#181818;stroke-width:1;" fill="none" id="Damaged-to-BackedUp"/><polygon points="562.09,456.788,566.429,447.946,562.28,451.792,558.435,447.643,562.09,456.788" fill="#181818" style="stroke:#181818;stroke-width:1;stroke-linejoin:miter;stroke-miterlimit:10;"/><text x="606.407" y="390.047" fill="#000" font-size="11" textLength="101.606" font-family="'Noto Sans'">Backups::copy_into:</text><text x="566.34" y="405.029" fill="#000" font-size="11" textLength="181.741" font-family="'Noto Sans'">create, sync the file, sync the folder</text></g><!--link Damaged to Blocked--><g class="link" data-entity-1="ent0004" data-entity-2="ent0009" id="lnk20" data-source-line="26" data-link-type="dependency"><path d="M614.42,331.978 C620.5,334.838 626.73,337.528 632.8,339.788 C685.93,359.598 701.79,356.048 756.8,369.788 C758.85,370.308 1049.8,445.098 1051.8,445.788 C1061.22,449.048 1066.344,450.92 1075.924,454.85" style="stroke:#181818;stroke-width:1;" fill="none" id="Damaged-to-Blocked"/><polygon points="1080.55,456.748,1073.742,449.631,1075.924,454.85,1070.705,457.033,1080.55,456.748" fill="#181818" style="stroke:#181818;stroke-width:1;stroke-linejoin:miter;stroke-miterlimit:10;"/><text x="966.776" y="390.047" fill="#000" font-size="11" textLength="70.851" font-family="'Noto Sans'">the copy fails:</text><text x="931.56" y="405.029" fill="#000" font-size="11" textLength="141.283" font-family="'Noto Sans'">never repaired without one</text></g><!--link BackedUp to Repaired--><g class="link" data-entity-1="ent0005" data-entity-2="ent0006" id="lnk21" data-source-line="27" data-link-type="dependency"><path d="M549.56,526.438 C536.73,565.008 517.437,622.983 504.617,661.543" style="stroke:#181818;stroke-width:1;" fill="none" id="BackedUp-to-Repaired"/><polygon points="503.04,666.288,509.675,659.01,504.617,661.543,502.084,656.486,503.04,666.288" fill="#181818" style="stroke:#181818;stroke-width:1;stroke-linejoin:miter;stroke-miterlimit:10;"/><text x="557.169" y="599.287" fill="#000" font-size="11" textLength="104.983" font-family="'Noto Sans'">temporary file, sync,</text><text x="535.51" y="614.269" fill="#000" font-size="11" textLength="148.301" font-family="'Noto Sans'">rename over, sync the folder</text></g><!--link BackedUp to Absent--><g class="link" data-entity-1="ent0005" data-entity-2="ent0008" id="lnk22" data-source-line="28" data-link-type="dependency"><path d="M474.1,526.648 C432.92,543.248 390.91,561.008 382.8,567.518 C345.83,597.168 319.236,640.567 303.716,669.937" style="stroke:#181818;stroke-width:1;" fill="none" id="BackedUp-to-Absent"/><polygon points="301.38,674.358,309.121,668.269,303.716,669.937,302.048,664.532,301.38,674.358" fill="#181818" style="stroke:#181818;stroke-width:1;stroke-linejoin:miter;stroke-miterlimit:10;"/><text x="398.677" y="599.287" fill="#000" font-size="11" textLength="91.97" font-family="'Noto Sans'">wallet-active only:</text><text x="383.8" y="614.269" fill="#000" font-size="11" textLength="121.725" font-family="'Noto Sans'">remove, sync the folder</text></g><!--link Valid to *end*--><g class="link" data-entity-1="ent0002" data-entity-2="ent0023" id="lnk24" data-source-line="29" data-link-type="dependency"><path d="M93.27,339.818 C61.88,401.448 6,535.618 52.8,636.548 C99.32,736.878 234.221,788.383 273.611,801.643" style="stroke:#181818;stroke-width:1;" fill="none" id="Valid-to-*end*"/><polygon points="278.35,803.238,271.096,796.576,273.611,801.643,268.544,804.158,278.35,803.238" fill="#181818" style="stroke:#181818;stroke-width:1;stroke-linejoin:miter;stroke-miterlimit:10;"/></g><!--link Repaired to *end*--><g class="link" data-entity-1="ent0006" data-entity-2="ent0023" id="lnk25" data-source-line="30" data-link-type="dependency"><path d="M425.89,735.998 C379.12,760.078 325.255,787.809 302.725,799.409" style="stroke:#181818;stroke-width:1;" fill="none" id="Repaired-to-*end*"/><polygon points="298.28,801.698,308.113,801.134,302.725,799.409,304.451,794.022,298.28,801.698" fill="#181818" style="stroke:#181818;stroke-width:1;stroke-linejoin:miter;stroke-miterlimit:10;"/></g><!--link Created to *end*--><g class="link" data-entity-1="ent0007" data-entity-2="ent0023" id="lnk26" data-source-line="31" data-link-type="dependency"><path d="M163.97,636.888 C175.65,664.748 194.32,704.568 216.8,735.578 C236.17,762.298 262.048,784.904 276.488,796.704" style="stroke:#181818;stroke-width:1;" fill="none" id="Created-to-*end*"/><polygon points="280.36,799.868,275.922,791.076,276.488,796.704,270.86,797.27,280.36,799.868" fill="#181818" style="stroke:#181818;stroke-width:1;stroke-linejoin:miter;stroke-miterlimit:10;"/></g><!--link Absent to *end*--><g class="link" data-entity-1="ent0008" data-entity-2="ent0023" id="lnk27" data-source-line="32" data-link-type="dependency"><path d="M288.8,727.898 C288.8,749.898 288.8,775.388 288.8,791.168" style="stroke:#181818;stroke-width:1;" fill="none" id="Absent-to-*end*"/><polygon points="288.8,796.168,292.8,787.168,288.8,791.168,284.8,787.168,288.8,796.168" fill="#181818" style="stroke:#181818;stroke-width:1;stroke-linejoin:miter;stroke-miterlimit:10;"/></g><!--link Blocked to *end*--><g class="link" data-entity-1="ent0009" data-entity-2="ent0023" id="lnk28" data-source-line="33" data-link-type="dependency"><path d="M1088.82,526.508 C987.86,577.938 786.15,676.048 605.8,735.578 C489.05,774.118 346.201,797.743 304.901,804.133" style="stroke:#181818;stroke-width:1;" fill="none" id="Blocked-to-*end*"/><polygon points="299.96,804.898,309.466,807.475,304.901,804.133,308.243,799.569,299.96,804.898" fill="#181818" style="stroke:#181818;stroke-width:1;stroke-linejoin:miter;stroke-miterlimit:10;"/></g><!--link GMN32 to Valid--><g class="link" data-entity-1="ent0033" data-entity-2="ent0002" id="lnk34" data-source-line="44" data-link-type="association"><path d="M719.89,275.448 C691.97,256.988 653.28,235.018 615.3,225.258 C444.83,181.478 386.37,169.908 219.3,225.258 C191.92,234.338 165.84,253.388 146.23,270.628" style="stroke:#181818;stroke-width:1;stroke-dasharray:7,7;" fill="none" id="GMN32-Valid"/></g><g class="legend" data-source-line="49"><rect x="1009.536" y="838.578" width="224.395" height="109.34" fill="#DDD" style="stroke:#000;stroke-width:1;" rx="7.5" ry="7.5"/><text x="1018.176" y="860.544" fill="#000" font-size="14" textLength="46.018" font-weight="700" font-family="'Noto Sans'">Colour</text><text x="1071.474" y="860.544" fill="#000" font-size="14" textLength="61.18" font-weight="700" font-family="'Noto Sans'">Meaning</text><rect x="1014.536" y="864.646" width="53.298" height="19.068" fill="#DDEBF7" style="stroke:none;"/><text x="1014.536" y="879.612" fill="#000" font-size="14" font-family="'Noto Sans'"> </text><text x="1071.474" y="879.612" fill="#000" font-size="14" textLength="153.817" font-family="'Noto Sans'">F1R3Gaze reads the file</text><rect x="1014.536" y="883.714" width="53.298" height="19.068" fill="#F8CBAD" style="stroke:none;"/><text x="1014.536" y="898.68" fill="#000" font-size="14" font-family="'Noto Sans'"> </text><text x="1071.474" y="898.68" fill="#000" font-size="14" textLength="140.377" font-family="'Noto Sans'">damage, and crashes</text><rect x="1014.536" y="902.782" width="53.298" height="19.068" fill="#FCE4D6" style="stroke:none;"/><text x="1014.536" y="917.748" fill="#000" font-size="14" font-family="'Noto Sans'"> </text><text x="1071.474" y="917.748" fill="#000" font-size="14" textLength="99.498" font-family="'Noto Sans'">a durable write</text><rect x="1014.536" y="921.85" width="53.298" height="19.068" fill="#EDEDED" style="stroke:none;"/><text x="1014.536" y="936.816" fill="#000" font-size="14" font-family="'Noto Sans'"> </text><text x="1071.474" y="936.816" fill="#000" font-size="14" textLength="116.354" font-family="'Noto Sans'">nothing is written</text><line x1="1014.536" y1="845.578" x2="1228.931" y2="845.578" style="stroke:#000;stroke-width:1;"/><line x1="1014.536" y1="864.646" x2="1228.931" y2="864.646" style="stroke:#000;stroke-width:1;"/><line x1="1014.536" y1="883.714" x2="1228.931" y2="883.714" style="stroke:#000;stroke-width:1;"/><line x1="1014.536" y1="902.782" x2="1228.931" y2="902.782" style="stroke:#000;stroke-width:1;"/><line x1="1014.536" y1="921.85" x2="1228.931" y2="921.85" style="stroke:#000;stroke-width:1;"/><line x1="1014.536" y1="940.918" x2="1228.931" y2="940.918" style="stroke:#000;stroke-width:1;"/><line x1="1014.536" y1="845.578" x2="1014.536" y2="940.918" style="stroke:#000;stroke-width:1;"/><line x1="1067.834" y1="845.578" x2="1067.834" y2="940.918" style="stroke:#000;stroke-width:1;"/><line x1="1228.931" y1="845.578" x2="1228.931" y2="940.918" style="stroke:#000;stroke-width:1;"/></g><?plantuml-src RLLDR-Cs4BthLmoImoP1Ff1sqHRQD80J9qM1Rbfiq5xgOZ6MHXPXYXH8AjuiykCxGugot2ry8Ud7DpDl7aT-gqoF3ZkegS51XqThmXDs14TFDbXuHkEF2lz_g6VrbU3wkzcVliNQxfJPG8FQq-oVXNDsjxzqNGGLDC7lXg13WnkgeL5yW05yG1SkXXvE75NML7nywVmv74rRm0W-EYqA1WTEzHDXVGJeGHPml5m-t3t-22Kq_jBnoKcFeJtDuBzGguIEApX-MCgFuJrwJnvKy52rL6tBbJ7qGWvsJeL09ZDyLDvpbP5ZN6UM35bY9rL5oBY6uyUVxkyM4gX1fMTnygKxhBQC6_fuBUt-xFdU_SFxvGzy3w4U7AvPWihshw3CojmuQyFjrPh1G--lRhW0hwovlTfhqwDobFL9cncdP37uICgz2c1TF1eRVRuoZWpxeGOhIgW09w86VSPWErLDgjwpq66CCgx_4oGpGZ-ijV8j0tOgj7O84gFNM8cEQ5v3AuinZA7T56EnzcH2396MizvfQWAmOIMItHbo-T9lyWUAsg1y4bRRgFF-CeUtZZF-0CQcwCg3nnUgLoPo0f_oITAsAFu--mSkBcwZtOheETabEvMCfTJNqL1xH7R271Ezi8TaFvMI2ZHsCBC8EVCI1YF6bgwTiokqCbifVioUcyPTH63jk6MDTHs68XCBJswGD0PQbWHpTzZoda9W83yv-e9Thyapt-39NQZw79Agylxy0UNO44bxukAyV62UZKCJXALnv5l3Adw80dJejk8fLZPG3-_V7LB6iakOVC1HJSrOsr4iSsMmxmd5pXsXsRMS5CUqTWiyA9ZUEYgov56-_ABAkEJtKfRoa3uhxZ9NNaLPkCPNKyK4fSpvrkgQZNL0ENKaTbHUPMpeD3fSVd6ZrparAgP4KfaZWZceOoEYUvr5dbvWV83VPdF0DNLXXrfJkC0gg1U-QVHhAJmTStnBaOmhzzdOnPHFFiXkoVinIDvc2VA-O1SIEBLfkTXcFiRY-2i0piuMK3dqBQo9tKanbrHaUNOsAS-kK5f3oqd6OSatBTCgWvfDR-e8DFHb_6QmdRRaa-rZ9ouFGc4JulmwY31nmuwND7PBBZxRFOeDcfg9iV8KF4vl_gA951aW6RBKF9WvZJIIuIGwtTQattbu4jHYP4b2_sh-uD57fvS5CQjeDoeO9neB6Bl3p0kUFnom7gjDZq7uabiIxfo1kLyy0rAe-CpZC_9vH31ipMQK8jQ3PmQDcta6cZQoYLraxDlFS6-r7PoiFl9ZapVw9d_SZ5_RMtY3n-jFt_-2NqL6vDmc_KPWwhy0w_Y2aewnEvnO1iLFXe3s7xkOUWQaeIs0sQmUFz2CuQnJxly2?></g></svg>